<?xml version="1.0" standalone="no"?><!DOCTYPE svg PUBLIC "-//W3C//DTD SVG 1.1//EN" "http://www.w3.org/Graphics/SVG/1.1/DTD/svg11.dtd"><svg t="1539014577308" class="icon" style="" viewBox="0 0 1024 1024" version="1.1" xmlns="http://www.w3.org/2000/svg" p-id="2224" xmlns:xlink="http://www.w3.org/1999/xlink" width="200" height="200"><defs><style type="text/css"></style></defs><path d="M512 1024C229.2352 1024 0 794.7648 0 512 0 229.2352 229.2352 0 512 0s512 229.2352 512 512C1024 794.7648 794.7648 1024 512 1024zM819.2 368.1792C819.2 347.1232 802.0096 345.6 780.8 345.6l-64 0c32.8576-19.0336 60.9536-56.2816 51.2-80.8064-14.2464-35.84-74.3168-59.9936-140.8-38.656-59.6096 19.1232-102.4 82.7392-102.4 114.3552L524.8 281.6l-25.6 0 0 58.8928c0-31.3344-31.3088-82.7776-89.6-101.6448-65.5104-21.2096-139.5584-10.2144-153.6 25.408-9.4976 24.0768 19.6096 62.5536 51.2 81.344l-76.8 0c-21.2096 0-25.6-0.7552-25.6 20.3008L204.8 460.8c0 21.056 4.3904 25.6 25.6 25.6l12.8 0 0 294.4c0 28.0704 10.1248 38.4 38.4 38.4l460.8 0c28.2752 0 38.4-10.5856 38.4-38.656L780.8 484.16l12.8 0c21.2096 0 25.6-17.6 25.6-38.656L819.2 368.1792zM768 460.8l-243.2-2.4192L524.8 371.2l243.2 0c17.6768 0 25.6 8.0512 25.6 25.6l0 38.4C793.6 452.7488 785.6768 460.8 768 460.8zM576 332.8c-15.744-21.9648 5.568-62.1568 51.2-76.8 45.632-14.6432 105.4208-16.3456 115.2 8.256 9.7792 24.6016-18.368 53.9008-64 68.544C632.768 347.4432 584.8704 345.1776 576 332.8zM755.2 755.2c0 24.8576-13.312 38.2208-38.4 38.2208L524.8 793.4208 524.8 484.16l230.4 0L755.2 755.2zM268.8 755.2 268.8 486.4l230.4 0 0 307.0208L307.2 793.6C281.0496 793.6 268.8 781.1328 268.8 755.2zM230.4 435.2l0-38.4c0-17.5488 7.9232-25.6 25.6-25.6l243.2 0 0 89.6L256 460.8C238.3232 460.8 230.4 452.7488 230.4 435.2zM358.4 340.4928c-44.9664-14.5536-86.4384-47.2448-76.8-71.6928 9.6384-24.448 83.0336-19.1104 128-4.544 44.9664 14.5536 66.7136 41.7024 51.2 63.5392C452.0576 340.0832 403.3664 355.0592 358.4 340.4928zM524.8 340.4928C524.8 340.4928 524.8 340.4928 524.8 340.4928L524.8 340.4928 524.8 340.4928z" fill="#1296db" p-id="2225" data-spm-anchor-id="a313x.7781069.0.i3" class=""></path></svg>