<svg viewBox="1 1 511.99998 511.99998" xmlns="http://www.w3.org/2000/svg"><path d="m512 256c0 141.386719-114.613281 256-256 256s-256-114.613281-256-256 114.613281-256 256-256 256 114.613281 256 256zm0 0" fill="#476787"/><path d="m232.492188 430.609375h47.015624v61.121094h-47.015624zm0 0" fill="#3b3b3b"/><path d="m503.828125 86.699219v233.675781c-4.910156 19.019531-11.972656 37.167969-20.898437 54.199219-8.316407 15.902343-18.261719 30.824219-29.609376 44.535156-6.0625 7.324219-12.519531 14.304687-19.34375 20.898437h-355.953124c-6.824219-6.59375-13.28125-13.574218-19.34375-20.898437-11.347657-13.710937-21.292969-28.632813-29.609376-44.535156-8.925781-17.03125-15.988281-35.179688-20.898437-54.199219v-233.675781c0-10.015625 8.117187-18.132813 18.128906-18.132813h459.398438c10.011719 0 18.128906 8.117188 18.128906 18.132813zm0 0" fill="#4a4a4a"/><path d="m482.933594 89.464844v285.109375c-.816406 1.546875-1.640625 3.09375-2.488282 4.617187-7.574218 13.816406-16.414062 26.855469-26.339843 38.953125-.261719.324219-.523438.640625-.785157.964844h-394.636718c-7.082032-8.558594-13.625-17.597656-19.558594-27.042969-3.28125-5.203125-6.363281-10.542968-9.257812-16-.273438-.488281-.535157-.992187-.796876-1.492187v-285.109375zm0 0" fill="#7eeef6"/><path d="m373.886719 483.296875c-35.289063 18.335937-75.371094 28.703125-117.886719 28.703125s-82.597656-10.367188-117.886719-28.703125c28.453125-5.390625 70.71875-8.808594 117.886719-8.808594 47.175781 0 89.433594 3.417969 117.886719 8.808594zm0 0" fill="#4a4a4a"/><path d="m309.679688 420.152344h-215.71875l.300781-1.042969h-35.578125c-7.082032-8.558594-13.625-17.597656-19.558594-27.042969-3.28125-5.203125-6.363281-10.542968-9.257812-16-.273438-.488281-.535157-.992187-.796876-1.492187v-161.007813l64.921876-88.941406 214.925781 294.484375zm0 0" fill="#4c4c4c"/><path d="m331.453125 275.269531v144.882813h-122.578125l-40.5-86.148438-1.953125-4.152344 102.433594-140.351562zm0 0" fill="#4c4c4c"/><path d="m268.855469 189.5-51.679688 208.257812-48.800781-63.753906-1.953125-4.152344zm0 0" fill="#3b3b3b"/><path d="m93.960938 420.152344.300781-1.042969h-35.578125c-7.082032-8.558594-13.625-17.597656-19.558594-27.042969l104.636719-143.371094 124.363281 170.414063.761719 1.042969zm0 0" fill="#4c4c4c"/><path d="m143.761719 248.695312-49.5 170.414063h-35.578125c-7.082032-8.558594-13.625-17.597656-19.558594-27.042969zm0 0" fill="#3b3b3b"/><path d="m236.902344 376.332031-50.085938-10.574219-19.558594 37.46875-40.203124-36.574218-21.238282 12.683594-23.34375 13.945312-13.578125-42.003906 74.863281-102.574219zm0 0" fill="#eaeaea"/><path d="m143.757812 248.703125-37.941406 130.632813-23.34375 13.945312-13.578125-42.003906zm0 0" fill="#ccc"/><path d="m316.707031 255.066406-7.660156 31.921875-40.191406-25.535156-21.195313 13.46875-18.992187 12.066406-7.660157-31.921875 47.847657-65.566406zm0 0" fill="#eaeaea"/><path d="m268.855469 189.5-21.195313 85.421875-18.992187 12.066406-7.660157-31.921875zm0 0" fill="#ccc"/><path d="m166.855469 224.460938-42.890625-20.46875-12.769532 28.09375-26.8125-26.816407-13.667968 10.628907-20.808594 16.1875-2.457031-43.691407 46.542969-63.769531zm0 0" fill="#eaeaea"/><path d="m93.992188 124.625-64.125 251.441406c-.273438-.488281-.535157-.992187-.796876-1.492187v-161.007813zm0 0" fill="#3b3b3b"/><path d="m93.992188 124.625-23.277344 91.273438-20.808594 16.1875-2.457031-43.691407zm0 0" fill="#ccc"/><path d="m426.175781 379.191406 27.929688 38.953125c-.261719.324219-.523438.640625-.785157.964844h-177.359374l28.621093-39.917969h-60.25l79.746094-111.21875h-57.730469l99.023438-138.125 99.035156 138.125h-57.730469l76.257813 106.351563 3.492187 4.867187zm0 0" fill="#66ccb5"/><g fill="#1bb78f"><path d="m333.535156 379.191406-14.996094 39.917969h-42.578124l28.621093-39.917969zm0 0"/><path d="m324.085938 267.972656h19.664062l-41.769531 111.21875h-57.648438zm0 0"/><path d="m313.515625 267.972656h-47.171875l99.035156-138.125zm0 0"/></g><path d="m482.933594 240.042969v134.53125c-8.316406 15.902343-18.265625 30.824219-29.613282 44.535156h-58.742187l11.660156-16.269531h-48.628906l64.375-89.789063h-46.613281l79.957031-111.511719zm0 0" fill="#66ccb5"/><path d="m455.324219 201.539062-79.949219 111.507813h39.746094zm0 0" fill="#1bb78f"/><path d="m438.558594 313.046875h-16.574219l-64.378906 89.789063h48.578125zm0 0" fill="#1bb78f"/><path d="m430.636719 402.839844-5.863281 16.269531h-30.195313l11.660156-16.269531zm0 0" fill="#1bb78f"/><path d="m462.554688 89.464844c0 26.933594-21.835938 48.769531-48.773438 48.769531-26.933594 0-48.769531-21.835937-48.769531-48.769531 0-26.9375 21.835937-48.773438 48.769531-48.773438 26.9375 0 48.773438 21.835938 48.773438 48.773438zm0 0" fill="#ffd861"/></svg>