<?xml version="1.0" encoding="UTF-8"?>
<svg width="60px" height="60px" viewBox="0 0 60 60" version="1.1" xmlns="http://www.w3.org/2000/svg" xmlns:xlink="http://www.w3.org/1999/xlink">
    <!-- Generator: Sketch 50 (54983) - http://www.bohemiancoding.com/sketch -->
    <title>Group 3</title>
    <desc>Created with Sketch.</desc>
    <defs>
        <filter x="-13.5%" y="-9.6%" width="126.9%" height="126.9%" filterUnits="objectBoundingBox" id="filter-1">
            <feOffset dx="0" dy="2" in="SourceAlpha" result="shadowOffsetOuter1"></feOffset>
            <feGaussianBlur stdDeviation="2" in="shadowOffsetOuter1" result="shadowBlurOuter1"></feGaussianBlur>
            <feColorMatrix values="0 0 0 0 0   0 0 0 0 0   0 0 0 0 0  0 0 0 0.5 0" type="matrix" in="shadowBlurOuter1" result="shadowMatrixOuter1"></feColorMatrix>
            <feMerge>
                <feMergeNode in="shadowMatrixOuter1"></feMergeNode>
                <feMergeNode in="SourceGraphic"></feMergeNode>
            </feMerge>
        </filter>
    </defs>
    <g id="Page-1" stroke="none" stroke-width="1" fill="none" fill-rule="evenodd">
        <g id="登陆" transform="translate(-823.000000, -95.000000)">
            <g id="Group-3" filter="url(#filter-1)" transform="translate(827.000000, 97.000000)">
                <g id="love-letter" fill-rule="nonzero">
                    <path d="M6.33536585,20.6206631 L1,25.9637625 L1,47.7432537 C1,49.5417791 2.45611026,51 4.25203252,51 L47.7479675,51 C49.5438897,51 51,49.5417791 51,47.7432537 L51,25.9637625 L43.0477642,18 L6.33536585,20.6206631 Z" id="Shape" fill="#108EE9"></path>
                    <path d="M50,50.0212265 L25.9146373,35 L2,50.1835692 C2.57451035,50.6910378 3.33245103,51 4.16344624,51 L47.6658285,51 C48.5817893,51 49.4088142,50.6246069 50,50.0212265 Z" id="Shape" fill="#ADE5FF"></path>
                    <path d="M43,11 L43,5.06789825 C43,2.82101722 44.7907102,1 47.0001966,1 C49.2092898,1 51,2.82101722 51,5.06789825 L51,11 L43,11 Z" id="Shape" fill="#FFC66C"></path>
                    <path d="M7,29.2404639 L7,5.01164907 C7,2.79583697 8.83131934,1 11.0909117,1 L48,1 C45.7404076,1 43.9090883,2.79583697 43.9090883,5.01164907 L43.9090883,30.5283873 L32.2355329,38 L26.7657029,34.6169333 L21.2958728,38 L7,29.2404639 Z" id="Shape" fill="#FFFFFF"></path>
                    <path d="M45.2929688,41.7070313 C45.4789062,41.8941407 45.7371094,42 46,42 C46.2628906,42 46.5210938,41.8941407 46.7070312,41.7070313 C46.8929688,41.5210938 47,41.2640626 47,41 C47,40.7371094 46.8929688,40.4789063 46.7070312,40.2929688 C46.5210938,40.1070313 46.2628906,40 46,40 C45.7371094,40 45.4789062,40.1070313 45.2929688,40.2929688 C45.1070312,40.4789063 45,40.7371094 45,41 C45,41.2640626 45.1070312,41.5210938 45.2929688,41.7070313 Z" id="Shape" fill="#000000"></path>
                    <path d="M50.984375,11.9526367 C51.5453492,11.9526367 52,11.4979859 52,10.9370117 L52,5.05154416 C52,2.26611328 49.7338867,0 46.9484558,0 L10.5359192,0 C7.75048828,0 5.484375,2.26611328 5.484375,5.05154416 L5.484375,20.0950928 L0.297546438,25.2819214 C0.10711675,25.4723511 0,25.7306213 0,26 L0,47.734375 C0,50.0865783 1.91342166,52 4.265625,52 L47.734375,52 C50.0865783,52 52,50.0865783 52,47.734375 L52,26 C52,25.7306213 51.8928833,25.4723511 51.7024536,25.2819214 L43.9285584,17.5076293 L43.9285584,11.9526367 L50.984375,11.9526367 Z M49.96875,5.05154416 L49.96875,9.92138672 L43.9285584,9.92138672 L43.9285584,5.05154416 C43.9285584,3.38607791 45.2833863,2.03125 46.9484558,2.03125 C48.6139221,2.03125 49.96875,3.38607791 49.96875,5.05154416 Z M10.5359192,2.03125 L42.901825,2.03125 C42.2714234,2.87429807 41.8973084,3.92007444 41.8973084,5.05154416 L41.8973084,30.4806519 L31.3986816,37.0405578 L26.5419312,33.9770203 C26.2106629,33.768341 25.7893371,33.768341 25.4580688,33.9770203 L20.6013184,37.0405578 L7.515625,28.8639832 L7.515625,5.05154416 C7.515625,3.38607791 8.87045291,2.03125 10.5359192,2.03125 Z M46.109375,37.8705139 C46.6703492,37.8705139 47.125,37.4158631 47.125,36.8548889 L47.125,29.6090393 L49.96875,27.8320922 L49.96875,47.734375 C49.96875,48.0541382 49.9005127,48.3580322 49.7791137,48.6333618 L33.306549,38.2434387 L45.09375,30.8781738 L45.09375,36.8548889 C45.09375,37.4158631 45.5484008,37.8705139 46.109375,37.8705139 Z M2.22088628,48.6333618 C2.0994873,48.3580322 2.03125,48.0541382 2.03125,47.734375 L2.03125,27.8320922 L18.693451,38.2434387 L2.22088628,48.6333618 Z M5.484375,27.5948486 L2.63665777,25.8155213 L5.484375,22.9674072 L5.484375,27.5948486 Z M4.265625,49.96875 C4.15771484,49.96875 4.0517883,49.9608154 3.94784548,49.9457398 L26,36.0368347 L48.0521545,49.9457398 C47.9482117,49.9608154 47.8422852,49.96875 47.734375,49.96875 L4.265625,49.96875 Z M49.3633422,25.8155213 L43.9285584,29.2111207 L43.9285584,20.3803406 L49.3633422,25.8155213 Z" id="Shape" fill="#000000"></path>
                    <path d="M19,28 C19,28.5523437 19.4508705,29 20.0071801,29 L33.9928199,29 C34.5491296,29 35,28.5523437 35,28 C35,27.4476562 34.5491296,27 33.9928199,27 L20.0071801,27 C19.4508705,27 19,27.4476562 19,28 Z" id="Shape" fill="#000000"></path>
                    <path d="M16,29 C16.2628906,29 16.5199219,28.8929687 16.7070312,28.7070312 C16.8929688,28.5210937 17,28.2628906 17,28 C17,27.7371093 16.8929688,27.4789062 16.7070312,27.2929687 C16.5199219,27.1070312 16.2628906,27 16,27 C15.7359375,27 15.4789062,27.1070312 15.2929688,27.2929687 C15.1058594,27.4789062 15,27.7371093 15,28 C15,28.2628906 15.1058594,28.5210937 15.2929688,28.7070312 C15.4789062,28.8929687 15.7359375,29 16,29 Z" id="Shape" fill="#000000"></path>
                </g>
                <text id="验证" font-family="PingFangSC-Medium, PingFang SC" font-size="10" font-weight="400" letter-spacing="1.70555687" fill="#000000">
                    <tspan x="14.2944431" y="20">验证</tspan>
                </text>
            </g>
        </g>
    </g>
</svg>