<?xml version="1.0" encoding="UTF-8"?>
<svg width="52px" height="32px" viewBox="0 0 52 32" version="1.1" xmlns="http://www.w3.org/2000/svg" xmlns:xlink="http://www.w3.org/1999/xlink">
    <!-- Generator: Sketch 51.2 (57519) - http://www.bohemiancoding.com/sketch -->
    <title>dozhan_logo</title>
    <desc>Created with Sketch.</desc>
    <defs></defs>
    <g id="Page-1" stroke="none" stroke-width="1" fill="none" fill-rule="evenodd">
        <g id="首页" transform="translate(-236.000000, -20.000000)" fill-rule="nonzero">
            <g id="dozhan_logo" transform="translate(236.000000, 20.000000)">
                <g id="Group" transform="translate(4.000000, 3.000000)" fill="#40658F">
                    <path d="M22.9697561,13.9155039 C22.9697561,16.3883721 22.6419512,18.5465116 21.9863415,20.3899225 C21.3307317,22.2333333 20.3707317,23.7620155 19.1063415,24.975969 C17.8419512,26.1899225 16.2965854,27.0891473 14.4468293,27.696124 C12.6204878,28.3031008 10.4195122,28.5953488 7.86731707,28.5953488 L1.56878049,28.5953488 C1.21756098,28.5953488 0.889756098,28.4829457 0.56195122,28.2581395 C0.257560976,28.0333333 0.0936585366,27.6286822 0.0936585366,27.0666667 L0.0936585366,1.59612403 C0.0936585366,1.01162791 0.257560976,0.629457364 0.56195122,0.404651163 C0.866341463,0.179844961 1.21756098,0.0674418605 1.56878049,0.0674418605 L8.28878049,0.0674418605 C10.8643902,0.0674418605 13.0419512,0.382170543 14.8214634,1.03410853 C16.6009756,1.66356589 18.0760976,2.58527132 19.2936585,3.79922481 C20.4878049,4.99069767 21.4009756,6.45193798 22.0331707,8.16046512 C22.6419512,9.84651163 22.9697561,11.7573643 22.9697561,13.9155039 Z M18.9658537,14.0728682 C18.9658537,12.5217054 18.755122,11.0829457 18.3570732,9.75658915 C17.9590244,8.43023256 17.3268293,7.26124031 16.4839024,6.29457364 C15.6409756,5.32790698 14.5404878,4.56356589 13.2526829,4.02403101 C11.9414634,3.4620155 10.2556098,3.19224806 8.19512195,3.19224806 L4.16780488,3.19224806 L4.16780488,25.4705426 L8.24195122,25.4705426 C10.1385366,25.4705426 11.7541463,25.2457364 13.0653659,24.7736434 C14.3765854,24.324031 15.4536585,23.6046512 16.3434146,22.6604651 C17.2097561,21.7162791 17.8653659,20.5248062 18.3102439,19.1085271 C18.755122,17.7147287 18.9658537,16.0286822 18.9658537,14.0728682 Z" id="Shape" fill-opacity="0.264973958"></path>
                    <path d="M47.7453659,15.5116279 C47.7453659,17.1302326 47.5112195,18.6139535 47.0663415,19.9852713 C46.6214634,21.3565891 45.9658537,22.5255814 45.0760976,23.5147287 C44.1863415,24.503876 43.0858537,25.2682171 41.7512195,25.8302326 C40.4165854,26.3922481 38.8946341,26.6620155 37.1385366,26.6620155 C35.4292683,26.6620155 33.9541463,26.4147287 32.6897561,25.9426357 C31.4253659,25.448062 30.3717073,24.7511628 29.5287805,23.8294574 C28.6858537,22.9077519 28.0536585,21.7837209 27.6321951,20.4573643 C27.2107317,19.1310078 27,17.6248062 27,15.9387597 C27,14.320155 27.2107317,12.8364341 27.6556098,11.4651163 C28.1004878,10.0937984 28.7560976,8.9248062 29.6458537,7.93565891 C30.5356098,6.94651163 31.6360976,6.18217054 32.9473171,5.64263566 C34.2585366,5.10310078 35.8039024,4.83333333 37.5834146,4.83333333 C39.2926829,4.83333333 40.7678049,5.08062016 42.0321951,5.55271318 C43.2965854,6.04728682 44.3502439,6.74418605 45.1931707,7.66589147 C46.0360976,8.5875969 46.6682927,9.71162791 47.0897561,11.0379845 C47.5346341,12.3643411 47.7453659,13.848062 47.7453659,15.5116279 Z M43.8117073,15.7589147 C43.8117073,14.679845 43.7180488,13.6682171 43.5073171,12.7015504 C43.2965854,11.7348837 42.9453659,10.9031008 42.4770732,10.1837209 C41.9853659,9.46434109 41.3531707,8.90232558 40.5336585,8.4751938 C39.7141463,8.04806202 38.6839024,7.84573643 37.4663415,7.84573643 C36.342439,7.84573643 35.3590244,8.04806202 34.5629268,8.43023256 C33.7434146,8.8124031 33.0878049,9.35193798 32.5492683,10.0488372 C32.0341463,10.7457364 31.6360976,11.5775194 31.3785366,12.544186 C31.1209756,13.5108527 31.0039024,14.5449612 31.0039024,15.6914729 C31.0039024,16.7930233 31.097561,17.8046512 31.3082927,18.7713178 C31.5190244,19.7379845 31.8702439,20.5697674 32.3619512,21.2891473 C32.8536585,22.0085271 33.5092683,22.5705426 34.3287805,22.9976744 C35.1482927,23.4248062 36.1785366,23.6271318 37.3960976,23.6271318 C38.52,23.6271318 39.48,23.4248062 40.2995122,23.0426357 C41.1190244,22.6604651 41.7980488,22.1209302 42.3131707,21.424031 C42.8282927,20.7271318 43.2263415,19.9178295 43.4839024,18.9511628 C43.6946341,17.9620155 43.8117073,16.9054264 43.8117073,15.7589147 Z" id="Shape" fill-opacity="0.256142437"></path>
                </g>
                <path d="M22.9229268,13.848062 C22.9229268,16.3209302 22.595122,18.4790698 21.9395122,20.3224806 C21.2839024,22.1658915 20.3239024,23.6945736 19.0595122,24.9085271 C17.795122,26.1224806 16.2497561,27.0217054 14.4,27.6286822 C12.5736585,28.2356589 10.3726829,28.527907 7.8204878,28.527907 L3.9804878,28.5503876 C3.62926829,28.5503876 1.28780488,28.6627907 0.702439024,28.1007752 C0,27.4263566 0,26.2124031 0,25.627907 C0,25.627907 0,4.94573643 0,4.49612403 C0,4.04651163 0,1.79844961 1.17073171,0.899224806 C2.34146341,0 4.21463415,0 4.21463415,0 C4.21463415,0 6.90731707,0 8.26536585,0 C10.8409756,0 13.0185366,0.314728682 14.7980488,0.966666667 C16.577561,1.59612403 18.0526829,2.51782946 19.2702439,3.73178295 C20.4643902,4.92325581 21.377561,6.38449612 22.0097561,8.09302326 C22.595122,9.77906977 22.9229268,11.7124031 22.9229268,13.848062 Z M18.9190244,14.027907 C18.9190244,12.4767442 18.7082927,11.0379845 18.3102439,9.71162791 C17.9121951,8.38527132 17.28,7.21627907 16.4370732,6.2496124 C15.5941463,5.26046512 14.5170732,4.49612403 13.2058537,3.95658915 C11.8946341,3.41705426 10.2087805,3.14728682 8.14829268,3.14728682 C8.14829268,3.14728682 4.19121951,2.94496124 4.19121951,3.61937984 C3.72292683,4.06899225 3.48878049,21.1542636 4.19121951,24.5263566 C4.6595122,25.4255814 4.6595122,25.4255814 8.19512195,25.448062 C9.81073171,25.4255814 11.7541463,25.448062 13.0185366,24.7511628 C14.2829268,24.0542636 15.4068293,23.5821705 16.2965854,22.6379845 C17.1629268,21.6937984 17.8185366,20.5023256 18.2634146,19.0860465 C18.7082927,17.6472868 18.9190244,15.9612403 18.9190244,14.027907 Z" id="Shape" fill="#34495E"></path>
                <path d="M47.9531707,15.8263566 C47.9531707,17.4449612 47.7190244,18.9286822 47.2741463,20.3 C46.8292683,21.6713178 46.1736585,22.8403101 45.2839024,23.8294574 C44.3941463,24.8186047 43.2936585,25.5829457 41.9590244,26.1449612 C40.6243902,26.7069767 39.102439,26.9767442 37.3463415,26.9767442 C35.6370732,26.9767442 34.1619512,26.7294574 32.897561,26.2573643 C31.6331707,25.7627907 30.5795122,25.0658915 29.7365854,24.144186 C28.8936585,23.2224806 28.2614634,22.0984496 27.84,20.772093 C27.4185366,19.4457364 27.2078049,17.9395349 27.2078049,16.2534884 C27.2078049,14.6348837 27.4185366,13.1511628 27.8634146,11.779845 C28.3082927,10.4085271 28.9639024,9.23953488 29.8536585,8.2503876 C30.7434146,7.26124031 31.8439024,6.49689922 33.155122,5.95736434 C34.4663415,5.41782946 36.0117073,5.14806202 37.7912195,5.14806202 C39.5004878,5.14806202 40.9756098,5.39534884 42.24,5.86744186 C43.5043902,6.3620155 44.5580488,7.05891473 45.4009756,7.98062016 C46.2439024,8.90232558 46.8760976,10.0263566 47.297561,11.3527132 C47.742439,12.6790698 47.9531707,14.1627907 47.9531707,15.8263566 Z M44.0195122,16.0736434 C44.0195122,14.9945736 43.9258537,13.9829457 43.715122,13.0162791 C43.5043902,12.0496124 43.1531707,11.2178295 42.684878,10.4984496 C42.1931707,9.77906977 41.5609756,9.21705426 40.7414634,8.78992248 C39.9219512,8.3627907 38.8917073,8.16046512 37.6741463,8.16046512 C36.5502439,8.16046512 35.5668293,8.3627907 34.7707317,8.74496124 C33.9512195,9.12713178 33.2956098,9.66666667 32.7570732,10.3635659 C32.2419512,11.0604651 31.8439024,11.8922481 31.5863415,12.8589147 C31.3287805,13.8255814 31.2117073,14.8596899 31.2117073,16.0062016 C31.2117073,17.0852713 31.3053659,18.1193798 31.5160976,19.0860465 C31.7268293,20.0527132 32.0780488,20.8844961 32.5697561,21.603876 C33.0614634,22.3232558 33.7170732,22.8852713 34.5365854,23.3124031 C35.3560976,23.7395349 36.3863415,23.9418605 37.6039024,23.9418605 C38.7278049,23.9418605 39.6878049,23.7395349 40.5073171,23.3573643 C41.3268293,22.9751938 42.0058537,22.4356589 42.5209756,21.7387597 C43.0360976,21.0418605 43.4341463,20.2325581 43.6917073,19.2658915 C43.902439,18.2767442 44.0195122,17.220155 44.0195122,16.0736434 Z" id="Shape" fill="#34495E"></path>
            </g>
        </g>
    </g>
</svg>