<?xml version="1.0" encoding="UTF-8"?>
<svg width="260px" height="37px" viewBox="0 0 260 37" version="1.1" xmlns="http://www.w3.org/2000/svg" xmlns:xlink="http://www.w3.org/1999/xlink">
    <!-- Generator: Sketch 50 (54983) - http://www.bohemiancoding.com/sketch -->
    <title>Group 2</title>
    <desc>Created with Sketch.</desc>
    <defs></defs>
    <g id="Page-1" stroke="none" stroke-width="1" fill="none" fill-rule="evenodd">
        <g id="登陆" transform="translate(-827.000000, -159.000000)">
            <g id="Group-2" transform="translate(827.000000, 156.000000)">
                <g id="dozhan_logo" transform="translate(0.000000, 3.000000)" fill-rule="nonzero">
                    <g id="Group" transform="translate(4.000000, 4.000000)" fill="#40658F">
                        <path d="M26.7980488,15.8348837 C26.7980488,18.6488372 26.4156098,21.1046512 25.6507317,23.2023256 C24.8858537,25.3 23.7658537,27.0395349 22.2907317,28.4209302 C20.8156098,29.8023256 19.0126829,30.8255814 16.8546341,31.5162791 C14.7239024,32.2069767 12.1560976,32.5395349 9.17853659,32.5395349 L1.8302439,32.5395349 C1.4204878,32.5395349 1.03804878,32.4116279 0.655609756,32.155814 C0.300487805,31.9 0.109268293,31.4395349 0.109268293,30.8 L0.109268293,1.81627907 C0.109268293,1.15116279 0.300487805,0.71627907 0.655609756,0.460465116 C1.01073171,0.204651163 1.4204878,0.076744186 1.8302439,0.076744186 L9.6702439,0.076744186 C12.675122,0.076744186 15.2156098,0.434883721 17.2917073,1.17674419 C19.3678049,1.89302326 21.0887805,2.94186047 22.5092683,4.32325581 C23.902439,5.67906977 24.9678049,7.34186047 25.7053659,9.28604651 C26.4156098,11.2046512 26.7980488,13.3790698 26.7980488,15.8348837 Z M22.1268293,16.0139535 C22.1268293,14.2488372 21.8809756,12.6116279 21.4165854,11.1023256 C20.9521951,9.59302326 20.2146341,8.2627907 19.2312195,7.1627907 C18.2478049,6.0627907 16.9639024,5.19302326 15.4614634,4.57906977 C13.9317073,3.93953488 11.964878,3.63255814 9.56097561,3.63255814 L4.86243902,3.63255814 L4.86243902,28.9837209 L9.61560976,28.9837209 C11.8282927,28.9837209 13.7131707,28.727907 15.2429268,28.1906977 C16.7726829,27.6790698 18.0292683,26.8604651 19.0673171,25.7860465 C20.0780488,24.7116279 20.8429268,23.355814 21.3619512,21.744186 C21.8809756,20.1581395 22.1268293,18.2395349 22.1268293,16.0139535 Z" id="Shape" fill-opacity="0.264973958"></path>
                        <path d="M55.7029268,17.6511628 C55.7029268,19.4930233 55.4297561,21.1813953 54.9107317,22.7418605 C54.3917073,24.3023256 53.6268293,25.6325581 52.5887805,26.7581395 C51.5507317,27.8837209 50.2668293,28.7534884 48.7097561,29.3930233 C47.1526829,30.0325581 45.3770732,30.3395349 43.3282927,30.3395349 C41.3341463,30.3395349 39.6131707,30.0581395 38.1380488,29.5209302 C36.6629268,28.9581395 35.4336585,28.1651163 34.4502439,27.1162791 C33.4668293,26.0674419 32.7292683,24.7883721 32.237561,23.2790698 C31.7458537,21.7697674 31.5,20.055814 31.5,18.1372093 C31.5,16.2953488 31.7458537,14.6069767 32.264878,13.0465116 C32.7839024,11.4860465 33.5487805,10.155814 34.5868293,9.03023256 C35.624878,7.90465116 36.9087805,7.03488372 38.4385366,6.42093023 C39.9682927,5.80697674 41.7712195,5.5 43.8473171,5.5 C45.8414634,5.5 47.562439,5.78139535 49.037561,6.31860465 C50.5126829,6.88139535 51.7419512,7.6744186 52.7253659,8.72325581 C53.7087805,9.77209302 54.4463415,11.0511628 54.9380488,12.5604651 C55.4570732,14.0697674 55.7029268,15.7581395 55.7029268,17.6511628 Z M51.1136585,17.9325581 C51.1136585,16.7046512 51.0043902,15.5534884 50.7585366,14.4534884 C50.5126829,13.3534884 50.1029268,12.4069767 49.5565854,11.5883721 C48.9829268,10.7697674 48.2453659,10.1302326 47.2892683,9.64418605 C46.3331707,9.15813953 45.1312195,8.92790698 43.7107317,8.92790698 C42.3995122,8.92790698 41.2521951,9.15813953 40.3234146,9.59302326 C39.3673171,10.027907 38.602439,10.6418605 37.9741463,11.4348837 C37.3731707,12.227907 36.9087805,13.1744186 36.6082927,14.2744186 C36.3078049,15.3744186 36.1712195,16.5511628 36.1712195,17.855814 C36.1712195,19.1093023 36.2804878,20.2604651 36.5263415,21.3604651 C36.7721951,22.4604651 37.1819512,23.4069767 37.7556098,24.2255814 C38.3292683,25.044186 39.0941463,25.6837209 40.0502439,26.1697674 C41.0063415,26.655814 42.2082927,26.8860465 43.6287805,26.8860465 C44.94,26.8860465 46.06,26.655814 47.0160976,26.2209302 C47.9721951,25.7860465 48.7643902,25.172093 49.3653659,24.3790698 C49.9663415,23.5860465 50.4307317,22.6651163 50.7312195,21.5651163 C50.9770732,20.4395349 51.1136585,19.2372093 51.1136585,17.9325581 Z" id="Shape" fill-opacity="0.256142437"></path>
                    </g>
                    <path d="M27,16.0011566 C27,18.858506 26.6138917,21.3521928 25.8416752,23.4822169 C25.0694586,25.612241 23.938713,27.3786024 22.4494382,28.7813012 C20.9601634,30.184 19.1399387,31.2230361 16.9611849,31.9243855 C14.8100102,32.6257349 12.2175689,32.9634217 9.21144025,32.9634217 L4.68845761,32.9893976 C4.27477017,32.9893976 1.51685393,33.1192771 0.827374872,32.4698795 C0,31.6906024 0,30.2879036 0,29.6125301 C0,29.6125301 0,5.7146988 0,5.19518072 C0,4.67566265 0,2.07807229 1.37895812,1.03903614 C2.75791624,0 4.96424923,0 4.96424923,0 C4.96424923,0 8.13585291,0 9.73544433,0 C12.7691522,0 15.3340143,0.363662651 17.4300306,1.11696386 C19.526047,1.84428916 21.2635342,2.9093012 22.6976507,4.312 C24.1041879,5.68872289 25.1797753,7.37715663 25.9244127,9.3513253 C26.6138917,11.2995181 27,13.5334458 27,16.0011566 Z M22.2839632,16.2089639 C22.2839632,14.4166265 22.0357508,12.7541687 21.566905,11.2215904 C21.0980592,9.68901205 20.3534219,8.33826506 19.360572,7.2213012 C18.3677222,6.07836145 17.0990807,5.19518072 15.5546476,4.57175904 C14.0102145,3.94833735 12.0245148,3.63662651 9.59754852,3.63662651 C9.59754852,3.63662651 4.93667007,3.40284337 4.93667007,4.18212048 C4.38508682,4.70163855 4.1092952,24.4433253 4.93667007,28.3397108 C5.48825332,29.378747 5.48825332,29.378747 9.65270684,29.4047229 C11.5556691,29.378747 13.8447395,29.4047229 15.3340143,28.5994699 C16.8232891,27.7942169 18.1470889,27.2487229 19.195097,26.1577349 C20.215526,25.066747 20.9877426,23.6900241 21.5117467,22.0535422 C22.0357508,20.3910843 22.2839632,18.4428916 22.2839632,16.2089639 Z" id="Shape" fill="#34495E"></path>
                    <path d="M56,18.2296601 C56,20.0834192 55.7291196,21.7826982 55.214447,23.3532441 C54.6997743,24.9237899 53.9413093,26.2626159 52.9119639,27.3954686 C51.8826185,28.5283213 50.6094808,29.4037075 49.0654628,30.0473738 C47.5214447,30.6910402 45.7607223,31 43.7291196,31 C41.751693,31 40.0451467,30.7167868 38.5823928,30.1761071 C37.1196388,29.6096807 35.9006772,28.8115345 34.9255079,27.7559217 C33.9503386,26.700309 33.2189616,25.4129763 32.731377,23.8939238 C32.2437923,22.3748713 32,20.6498455 32,18.7188465 C32,16.8650875 32.2437923,15.1658084 32.758465,13.5952626 C33.2731377,12.0247168 34.0316027,10.6858908 35.0609481,9.55303811 C36.0902935,8.42018538 37.3634312,7.54479918 38.8803612,6.92687951 C40.3972912,6.30895984 42.1851016,6 44.2437923,6 C46.221219,6 47.9277652,6.28321318 49.3905192,6.82389289 C50.8532731,7.39031926 52.0722348,8.1884655 53.0474041,9.24407827 C54.0225734,10.299691 54.7539503,11.5870237 55.241535,13.1060762 C55.7562077,14.6251287 56,16.3244078 56,18.2296601 Z M51.4492099,18.5128733 C51.4492099,17.277034 51.3408578,16.1184346 51.0970655,15.0113285 C50.8532731,13.9042225 50.4469526,12.9515963 49.9051919,12.1277034 C49.3363431,11.3038105 48.6049661,10.6601442 47.6568849,10.1709578 C46.7088036,9.68177137 45.51693,9.45005149 44.1083521,9.45005149 C42.8081264,9.45005149 41.6704289,9.68177137 40.7494357,10.1194645 C39.8013544,10.5571576 39.0428894,11.1750772 38.4198646,11.9732235 C37.8239278,12.7713697 37.3634312,13.7239959 37.0654628,14.831102 C36.7674944,15.938208 36.6320542,17.1225541 36.6320542,18.4356334 C36.6320542,19.6714727 36.7404063,20.8558187 36.9841986,21.9629248 C37.227991,23.0700309 37.6343115,24.0226571 38.2031603,24.8465499 C38.772009,25.6704428 39.530474,26.3141092 40.4785553,26.8032956 C41.4266366,27.292482 42.6185102,27.5242019 44.027088,27.5242019 C45.3273138,27.5242019 46.4379233,27.292482 47.3860045,26.8547889 C48.3340858,26.4170958 49.1196388,25.7991761 49.7155756,25.0010299 C50.3115124,24.2028836 50.772009,23.2760041 51.0699774,22.168898 C51.3137698,21.0360453 51.4492099,19.8259526 51.4492099,18.5128733 Z" id="Shape" fill="#108EE9"></path>
                </g>
                <text id="Something" font-family="PingFangSC-Medium, PingFang SC" font-size="30" font-weight="400" letter-spacing="5.116669" fill="#34495E">
                    <tspan x="69.0299895" y="32">Something</tspan>
                </text>
            </g>
        </g>
    </g>
</svg>